<?xml version="1.0" standalone="no"?>
<!DOCTYPE svg PUBLIC "-//W3C//DTD SVG 20010904//EN"
 "http://www.w3.org/TR/2001/REC-SVG-20010904/DTD/svg10.dtd">
<svg version="1.0" xmlns="http://www.w3.org/2000/svg"
 width="128.000000pt" height="84.000000pt" viewBox="0 0 128.000000 84.000000"
 preserveAspectRatio="xMidYMid meet">

<g transform="translate(0.000000,84.000000) scale(0.100000,-0.100000)"
fill="#000000" stroke="none">
<path d="M465 804 c-6 -2 -51 -7 -100 -12 l-90 -7 -13 -57 -14 -56 -84 -7
c-82 -7 -84 -8 -86 -34 0 -14 -1 -33 -2 -41 -1 -10 -14 -16 -39 -18 -35 -3
-37 -5 -37 -38 0 -28 4 -34 20 -34 19 0 20 -4 14 -52 -3 -29 -13 -58 -20 -64
-11 -9 -14 -51 -14 -198 l0 -186 640 0 641 0 -3 97 c-2 71 -7 98 -17 101 -11
4 -12 -3 -7 -32 4 -20 3 -36 -2 -36 -15 0 -52 -36 -53 -51 -1 -35 -34 93 -38
154 -1 4 -8 7 -17 7 -12 0 -15 -6 -10 -28 6 -24 5 -25 -7 -10 -18 23 -44 23
-65 1 -16 -16 -17 -15 -20 16 -4 43 0 46 37 28 30 -15 31 -15 31 8 0 13 5 27
10 30 6 3 10 11 10 16 0 6 -4 7 -10 4 -6 -3 -7 1 -4 9 4 11 0 16 -10 16 -9 0
-15 -5 -14 -12 3 -12 -3 -14 -38 -17 -14 -1 -14 -2 0 -17 23 -23 20 -26 -11
-11 -16 7 -38 11 -50 9 -18 -3 -21 -7 -14 -26 5 -12 7 -43 4 -69 -5 -38 -3
-47 10 -47 13 0 14 6 6 32 -12 43 -5 46 14 6 10 -22 24 -34 38 -35 12 -1 26
-6 31 -11 6 -6 -12 -7 -43 -4 l-52 5 6 -39 c3 -21 3 -32 1 -22 -7 24 -34 31
-34 9 0 -10 -9 -21 -20 -24 -16 -4 -20 0 -20 19 0 13 6 24 13 24 8 0 8 3 -2 9
-20 13 -6 41 21 42 13 1 -2 9 -36 20 -77 25 -133 18 -133 -17 0 -13 6 -29 13
-35 8 -6 14 -20 14 -30 0 -11 5 -19 11 -19 6 0 3 -7 -6 -16 -9 -10 -24 -14
-37 -10 -12 3 -29 0 -37 -7 -12 -9 -13 -9 -7 1 4 6 3 12 -1 12 -5 0 -15 -6
-22 -12 -10 -11 -11 -10 -6 4 6 14 2 18 -14 18 -23 0 -26 16 -15 108 6 42 10
52 25 52 11 0 19 4 19 9 0 11 -59 23 -73 14 -5 -3 -7 -1 -4 4 11 18 -49 33
-102 26 l-49 -6 4 -36 c3 -25 2 -30 -4 -17 -8 18 -9 18 -15 3 -5 -13 2 -22 27
-34 25 -11 35 -24 38 -45 3 -16 0 -32 -7 -36 -8 -5 -6 -12 7 -24 10 -10 18
-13 18 -8 0 6 7 10 15 10 25 0 17 -14 -23 -36 -37 -20 -72 -22 -72 -2 0 5 -6
8 -14 5 -8 -3 -17 -1 -19 6 -3 8 -10 6 -19 -7 -11 -13 -17 -16 -22 -7 -4 6
-12 8 -18 5 -8 -5 -9 -1 -5 10 5 14 3 17 -8 12 -11 -4 -15 1 -15 19 0 14 4 25
10 25 5 0 7 7 4 15 -3 8 6 25 22 40 15 14 22 25 15 25 -7 0 1 11 16 25 l28 26
-35 -2 c-66 -4 -140 1 -139 9 4 25 -4 32 -37 32 -25 0 -35 -4 -31 -13 3 -7 -1
-26 -9 -42 -9 -19 -12 -22 -8 -7 3 12 2 22 -3 22 -5 0 -4 38 1 85 10 90 25
114 27 43 1 -24 3 -34 5 -23 2 11 9 44 15 73 13 63 6 78 -15 31 -9 -23 -15
-28 -15 -15 -1 17 -7 18 -67 12 l-67 -6 7 52 c14 105 0 94 146 110 27 3 37 22
40 78 l3 35 7 -40 c7 -38 7 -39 9 -8 1 36 5 38 100 47 29 3 59 10 67 17 21 17
44 3 45 -28 1 -17 3 -21 6 -10 6 23 23 22 23 -2 0 -11 7 -26 15 -34 8 -8 11
-18 7 -22 -4 -5 0 -6 8 -3 9 3 35 -7 58 -23 24 -16 45 -29 48 -29 15 0 83 -66
93 -91 l10 -24 1 25 c1 21 2 23 13 10 7 -9 29 -26 50 -39 20 -12 37 -27 37
-32 0 -6 4 -8 9 -5 5 3 14 -1 21 -9 7 -8 18 -15 25 -15 7 0 19 -20 26 -45 7
-25 16 -39 20 -33 4 6 5 18 2 27 -2 9 7 3 21 -14 l26 -30 0 36 c0 19 6 41 13
48 10 10 5 19 -24 44 -434 385 -425 377 -459 367 -21 -6 -39 -6 -51 0 -19 11
-19 11 -34 4z m-279 -461 c-4 -27 -10 -63 -13 -80 l-5 -33 -62 1 c-47 0 -56 2
-38 9 21 9 31 30 13 30 -12 0 -23 64 -15 94 6 24 10 26 66 26 l60 0 -6 -47z
m411 -79 c-3 -3 -12 -4 -19 -1 -8 3 -5 6 6 6 11 1 17 -2 13 -5z m53 -154 c0
-11 -7 -20 -15 -20 -27 0 -18 30 13 39 1 1 2 -8 2 -19z m597 -22 c-3 -8 -6 -5
-6 6 -1 11 2 17 5 13 3 -3 4 -12 1 -19z m-920 -45 c-3 -10 -5 -2 -5 17 0 19 2
27 5 18 2 -10 2 -26 0 -35z m323 28 c0 -5 -11 -8 -24 -7 -13 0 -22 4 -19 9 6
10 43 9 43 -2z m-250 -45 c0 -3 -4 -8 -10 -11 -5 -3 -10 -1 -10 4 0 6 5 11 10
11 6 0 10 -2 10 -4z"/>
<path d="M552 543 c-18 -7 -30 -18 -27 -23 3 -5 6 -25 7 -45 1 -19 3 -33 6
-30 3 2 19 -6 36 -18 17 -12 34 -23 39 -23 4 -1 11 -2 17 -3 5 0 16 -13 24
-28 16 -31 22 -23 28 39 4 34 2 37 -35 48 -21 6 -36 14 -33 18 4 3 -3 11 -15
18 -13 6 -24 19 -25 28 -3 20 0 20 36 1 37 -19 38 -15 3 11 -25 19 -31 19 -61
7z"/>
<path d="M318 533 c6 -2 18 -2 25 0 6 3 1 5 -13 5 -14 0 -19 -2 -12 -5z"/>
<path d="M270 519 c0 -5 5 -7 10 -4 6 3 10 8 10 11 0 2 -4 4 -10 4 -5 0 -10
-5 -10 -11z"/>
<path d="M309 501 c-51 -5 -55 -8 -48 -26 4 -11 8 -15 8 -8 1 7 33 14 86 18
47 4 85 11 85 16 0 10 -39 9 -131 0z"/>
<path d="M794 349 c8 -51 16 -65 26 -49 5 8 13 4 28 -14 11 -14 24 -26 30 -26
6 0 13 -13 17 -30 8 -37 24 -40 17 -4 -3 16 1 30 9 36 11 7 11 11 2 15 -20 7
-16 51 5 55 11 2 1 12 -33 31 -48 26 -49 26 -20 2 16 -13 26 -27 22 -31 -4 -4
-7 -3 -7 3 0 6 -6 13 -12 16 -7 3 -31 13 -52 22 l-39 16 7 -42z"/>
<path d="M727 359 c7 -7 15 -10 18 -7 3 3 -2 9 -12 12 -14 6 -15 5 -6 -5z"/>
<path d="M725 130 c3 -5 13 -10 21 -10 8 0 14 5 14 10 0 6 -9 10 -21 10 -11 0
-17 -4 -14 -10z"/>
</g>
</svg>
