<?xml version="1.0" encoding="UTF-8"?>
<svg id="Layer_2" width="100px" data-name="Layer 2" xmlns="http://www.w3.org/2000/svg" viewBox="0 0 236.58 83">
  <g id="Livello_1" data-name="Livello 1">
    <g>
      <path d="M6.3,8.7h5.64L31.68,41.22c1.08,1.86,1.86,3.3,2.52,4.92h.12c-.12-1.62-.18-2.94-.18-5.22V8.7h4.2V51.3h-5.64L12.96,18.72c-1.08-1.86-1.86-3.18-2.52-4.92h-.12c.12,1.44,.18,2.94,.18,5.22V51.3H6.3V8.7Z"/>
      <path d="M74.84,47.34v3.96h-26.4V8.7h25.98v3.96h-21.36v14.82h20.34v3.96h-20.34v15.9h21.78Z"/>
      <path d="M94.42,28.86l-13.74-20.16h5.52l9.6,14.58c.72,1.14,1.08,1.74,1.5,2.64h.12c.42-.96,.78-1.5,1.5-2.58l9.54-14.64h5.22l-13.68,20.58,15.12,22.02h-5.52l-10.32-15.6c-1.14-1.74-1.56-2.28-2.1-3.48h-.12c-.54,1.08-1.26,2.22-2.16,3.48l-10.26,15.6h-5.28l15.06-22.44Z"/>
      <path d="M149.5,12.66h-13.74V51.3h-4.68V12.66h-13.74v-3.96h32.16v3.96Z"/>
    </g>
  </g>
</svg>
